<svg width="1164" height="285" viewBox="0 0 1164 285" fill="none" xmlns="http://www.w3.org/2000/svg">
<g clip-path="url(#clip0_276_449)">
<path d="M266.381 236.164C270.687 233.547 274.395 230.216 277.744 226.409L361.472 129.208C364.94 125.163 367.691 120.642 369.725 115.764L370.084 114.931C388.145 71.1495 340.181 29.39 298.915 53.0656L298.556 53.3036C293.652 56.1589 289.227 59.728 285.519 64.011L202.39 160.498C198.921 164.543 196.17 168.945 194.136 173.823L193.538 175.132C175.118 219.865 225.235 261.863 266.381 236.164Z" fill="white"/>
<path d="M287.531 176.107C285.742 171.43 283.357 166.994 280.256 163.037L201.668 61.1191C198.448 56.9225 194.513 53.2056 190.1 50.208L189.385 49.7284C150.031 23.1098 99.4675 61.7187 114.374 107.042L114.494 107.522C116.282 112.917 118.906 117.953 122.364 122.39L200.475 223.588C203.695 227.785 207.511 231.382 211.924 234.38L213.116 235.219C253.305 262.437 304.584 221.79 287.531 176.107Z" fill="white"/>
<path d="M102.566 230.976C106.868 228.356 110.692 225.022 113.919 221.211L197.817 124.149C201.283 120.1 204.032 115.574 206.064 110.691L206.422 109.858C224.588 66.0308 176.783 24.2287 135.551 47.8094L135.193 48.0476C130.293 50.9059 125.871 54.4788 122.166 58.7662L38.8653 155.233C35.3994 159.163 32.6507 163.688 30.619 168.571L30.0214 169.881C11.3774 214.422 61.3337 256.701 102.566 230.976Z" fill="white"/>
<path d="M601.653 51.1818V233H572.356L486.685 109.154H485.176V233H452.239V51.1818H481.713L567.296 175.116H568.894V51.1818H601.653ZM691.491 235.663C677.819 235.663 666.011 232.822 656.068 227.141C646.184 221.4 638.579 213.291 633.252 202.815C627.925 192.28 625.262 179.881 625.262 165.617C625.262 151.59 627.925 139.28 633.252 128.685C638.638 118.032 646.154 109.746 655.802 103.827C665.449 97.8497 676.783 94.8608 689.804 94.8608C698.208 94.8608 706.139 96.2221 713.596 98.9446C721.113 101.608 727.742 105.751 733.483 111.374C739.283 116.996 743.84 124.158 747.155 132.858C750.469 141.499 752.126 151.797 752.126 163.753V173.607H640.354V151.945H721.32C721.261 145.79 719.929 140.315 717.325 135.521C714.721 130.668 711.081 126.851 706.405 124.069C701.789 121.287 696.403 119.896 690.248 119.896C683.678 119.896 677.907 121.494 672.936 124.69C667.964 127.827 664.088 131.97 661.306 137.119C658.583 142.209 657.192 147.802 657.133 153.898V172.808C657.133 180.739 658.583 187.545 661.483 193.227C664.383 198.85 668.438 203.17 673.646 206.189C678.854 209.148 684.95 210.628 691.934 210.628C696.61 210.628 700.842 209.977 704.63 208.675C708.418 207.313 711.702 205.331 714.484 202.727C717.266 200.122 719.367 196.897 720.787 193.05L750.794 196.423C748.901 204.354 745.29 211.279 739.964 217.197C734.696 223.057 727.949 227.614 719.722 230.869C711.495 234.065 702.085 235.663 691.491 235.663ZM833.796 235.663C820.183 235.663 808.494 232.674 798.729 226.697C789.022 220.719 781.535 212.463 776.268 201.928C771.059 191.333 768.455 179.141 768.455 165.351C768.455 151.501 771.119 139.28 776.445 128.685C781.772 118.032 789.289 109.746 798.995 103.827C808.761 97.8497 820.302 94.8608 833.619 94.8608C844.686 94.8608 854.481 96.9027 863.004 100.987C871.586 105.011 878.422 110.723 883.512 118.121C888.602 125.46 891.502 134.042 892.212 143.866H861.495C860.252 137.297 857.293 131.822 852.617 127.442C848.001 123.004 841.816 120.784 834.062 120.784C827.493 120.784 821.722 122.56 816.751 126.111C811.779 129.603 807.902 134.634 805.121 141.203C802.398 147.773 801.037 155.644 801.037 164.818C801.037 174.11 802.398 182.1 805.121 188.788C807.843 195.417 811.661 200.537 816.573 204.147C821.545 207.698 827.374 209.474 834.062 209.474C838.797 209.474 843.029 208.586 846.758 206.81C850.546 204.976 853.712 202.342 856.257 198.909C858.802 195.476 860.548 191.304 861.495 186.391H892.212C891.443 196.039 888.602 204.591 883.69 212.048C878.777 219.446 872.089 225.247 863.626 229.449C855.162 233.592 845.219 235.663 833.796 235.663ZM981.695 96.6364V121.494H903.303V96.6364H981.695ZM922.657 63.9659H954.795V191.984C954.795 196.305 955.446 199.619 956.748 201.928C958.109 204.177 959.885 205.715 962.075 206.544C964.265 207.373 966.691 207.787 969.354 207.787C971.367 207.787 973.202 207.639 974.859 207.343C976.575 207.047 977.877 206.781 978.765 206.544L984.18 231.668C982.464 232.26 980.008 232.911 976.812 233.621C973.675 234.332 969.828 234.746 965.271 234.864C957.221 235.101 949.971 233.888 943.52 231.224C937.069 228.502 931.949 224.3 928.161 218.618C924.433 212.936 922.598 205.834 922.657 197.311V63.9659ZM1061.59 235.663C1048.27 235.663 1036.73 232.734 1026.97 226.874C1017.2 221.015 1009.62 212.818 1004.24 202.283C998.911 191.748 996.248 179.437 996.248 165.351C996.248 151.265 998.911 138.924 1004.24 128.33C1009.62 117.736 1017.2 109.509 1026.97 103.65C1036.73 97.7905 1048.27 94.8608 1061.59 94.8608C1074.91 94.8608 1086.45 97.7905 1096.21 103.65C1105.98 109.509 1113.52 117.736 1118.85 128.33C1124.24 138.924 1126.93 151.265 1126.93 165.351C1126.93 179.437 1124.24 191.748 1118.85 202.283C1113.52 212.818 1105.98 221.015 1096.21 226.874C1086.45 232.734 1074.91 235.663 1061.59 235.663ZM1061.77 209.918C1068.99 209.918 1075.02 207.935 1079.88 203.969C1084.73 199.945 1088.34 194.559 1090.71 187.812C1093.13 181.065 1094.35 173.548 1094.35 165.262C1094.35 156.917 1093.13 149.371 1090.71 142.624C1088.34 135.817 1084.73 130.402 1079.88 126.377C1075.02 122.353 1068.99 120.34 1061.77 120.34C1054.37 120.34 1048.21 122.353 1043.3 126.377C1038.45 130.402 1034.81 135.817 1032.38 142.624C1030.01 149.371 1028.83 156.917 1028.83 165.262C1028.83 173.548 1030.01 181.065 1032.38 187.812C1034.81 194.559 1038.45 199.945 1043.3 203.969C1048.21 207.935 1054.37 209.918 1061.77 209.918Z" fill="white"/>
</g>
<defs>
<clipPath id="clip0_276_449">
<rect width="1164" height="285" fill="white"/>
</clipPath>
</defs>
</svg>
