<svg width="785" height="249" viewBox="0 0 785 249" fill="none" xmlns="http://www.w3.org/2000/svg">
<path d="M246.841 178.484C249.328 176.975 251.47 175.055 253.404 172.861L301.764 116.839C303.767 114.508 305.356 111.902 306.531 109.091L306.738 108.611C317.17 83.3768 289.467 59.3085 265.632 72.9541L265.425 73.0912C262.592 74.7369 260.036 76.794 257.895 79.2625L209.88 134.873C207.877 137.205 206.288 139.742 205.113 142.553L204.768 143.307C194.129 169.09 223.075 193.295 246.841 178.484Z" fill="white"/>
<path d="M259.056 143.869C258.023 141.174 256.645 138.617 254.854 136.337L209.463 77.5958C207.603 75.177 205.33 73.0347 202.781 71.3071L202.368 71.0306C179.638 55.6889 150.433 77.9413 159.043 104.064L159.112 104.34C160.145 107.45 161.661 110.352 163.658 112.909L208.774 171.236C210.634 173.654 212.838 175.728 215.386 177.455L216.075 177.939C239.287 193.626 268.906 170.199 259.056 143.869Z" fill="white"/>
<path d="M152.223 175.494C154.708 173.984 156.917 172.062 158.781 169.865L207.239 113.923C209.241 111.589 210.828 108.981 212.002 106.167L212.209 105.686C222.701 80.4266 195.09 56.3338 171.275 69.9246L171.068 70.0619C168.238 71.7093 165.684 73.7685 163.544 76.2396L115.43 131.838C113.429 134.104 111.841 136.712 110.667 139.526L110.322 140.281C99.5538 165.953 128.408 190.32 152.223 175.494Z" fill="white"/>
<path d="M419.513 80.7273V168H405.451L364.329 108.554H363.604V168H347.795V80.7273H361.942L403.022 140.216H403.789V80.7273H419.513ZM462.635 169.278C456.073 169.278 450.405 167.915 445.633 165.188C440.888 162.432 437.238 158.54 434.681 153.511C432.124 148.455 430.846 142.503 430.846 135.656C430.846 128.923 432.124 123.014 434.681 117.929C437.266 112.815 440.874 108.838 445.505 105.997C450.135 103.128 455.576 101.693 461.826 101.693C465.86 101.693 469.667 102.347 473.246 103.653C476.854 104.932 480.036 106.92 482.792 109.619C485.576 112.318 487.763 115.756 489.354 119.932C490.945 124.08 491.741 129.023 491.741 134.761V139.491H438.09V129.094H476.954C476.925 126.139 476.286 123.511 475.036 121.21C473.786 118.881 472.039 117.048 469.795 115.713C467.579 114.378 464.993 113.71 462.039 113.71C458.885 113.71 456.116 114.477 453.729 116.011C451.343 117.517 449.482 119.506 448.147 121.977C446.84 124.42 446.172 127.105 446.144 130.031V139.108C446.144 142.915 446.84 146.182 448.232 148.909C449.624 151.608 451.57 153.682 454.07 155.131C456.57 156.551 459.496 157.261 462.849 157.261C465.093 157.261 467.124 156.949 468.942 156.324C470.76 155.67 472.337 154.719 473.672 153.469C475.008 152.219 476.016 150.67 476.698 148.824L491.101 150.443C490.192 154.25 488.459 157.574 485.902 160.415C483.374 163.227 480.135 165.415 476.187 166.977C472.238 168.511 467.721 169.278 462.635 169.278ZM530.942 169.278C524.408 169.278 518.797 167.844 514.11 164.974C509.451 162.105 505.857 158.142 503.328 153.085C500.828 148 499.578 142.148 499.578 135.528C499.578 128.881 500.857 123.014 503.414 117.929C505.971 112.815 509.578 108.838 514.238 105.997C518.925 103.128 524.465 101.693 530.857 101.693C536.169 101.693 540.871 102.673 544.962 104.634C549.081 106.565 552.363 109.307 554.806 112.858C557.249 116.381 558.641 120.5 558.982 125.216H544.238C543.641 122.062 542.221 119.435 539.976 117.332C537.76 115.202 534.792 114.136 531.07 114.136C527.917 114.136 525.147 114.989 522.76 116.693C520.374 118.369 518.513 120.784 517.178 123.938C515.871 127.091 515.218 130.869 515.218 135.273C515.218 139.733 515.871 143.568 517.178 146.778C518.485 149.96 520.317 152.418 522.675 154.151C525.061 155.855 527.86 156.707 531.07 156.707C533.343 156.707 535.374 156.281 537.164 155.429C538.982 154.548 540.502 153.284 541.723 151.636C542.945 149.989 543.783 147.986 544.238 145.628H558.982C558.613 150.259 557.249 154.364 554.891 157.943C552.533 161.494 549.323 164.278 545.26 166.295C541.198 168.284 536.425 169.278 530.942 169.278ZM601.933 102.545V114.477H564.306V102.545H601.933ZM573.595 86.8636H589.022V148.312C589.022 150.386 589.334 151.977 589.959 153.085C590.612 154.165 591.465 154.903 592.516 155.301C593.567 155.699 594.732 155.898 596.01 155.898C596.976 155.898 597.857 155.827 598.652 155.685C599.476 155.543 600.101 155.415 600.527 155.301L603.127 167.361C602.303 167.645 601.124 167.957 599.59 168.298C598.084 168.639 596.237 168.838 594.05 168.895C590.186 169.009 586.706 168.426 583.61 167.148C580.513 165.841 578.056 163.824 576.237 161.097C574.448 158.369 573.567 154.96 573.595 150.869V86.8636ZM640.283 169.278C633.891 169.278 628.351 167.872 623.663 165.06C618.976 162.247 615.34 158.312 612.754 153.256C610.198 148.199 608.919 142.29 608.919 135.528C608.919 128.767 610.198 122.844 612.754 117.759C615.34 112.673 618.976 108.724 623.663 105.912C628.351 103.099 633.891 101.693 640.283 101.693C646.675 101.693 652.215 103.099 656.902 105.912C661.59 108.724 665.212 112.673 667.769 117.759C670.354 122.844 671.646 128.767 671.646 135.528C671.646 142.29 670.354 148.199 667.769 153.256C665.212 158.312 661.59 162.247 656.902 165.06C652.215 167.872 646.675 169.278 640.283 169.278ZM640.368 156.92C643.834 156.92 646.732 155.969 649.061 154.065C651.391 152.134 653.124 149.548 654.26 146.31C655.425 143.071 656.007 139.463 656.007 135.486C656.007 131.48 655.425 127.858 654.26 124.619C653.124 121.352 651.391 118.753 649.061 116.821C646.732 114.889 643.834 113.923 640.368 113.923C636.817 113.923 633.862 114.889 631.504 116.821C629.175 118.753 627.428 121.352 626.263 124.619C625.127 127.858 624.558 131.48 624.558 135.486C624.558 139.463 625.127 143.071 626.263 146.31C627.428 149.548 629.175 152.134 631.504 154.065C633.862 155.969 636.817 156.92 640.368 156.92Z" fill="white"/>
</svg>
