<svg width="1164" height="359" viewBox="0 0 1164 359" fill="none" xmlns="http://www.w3.org/2000/svg">
<path d="M266.381 273.164C270.687 270.547 274.395 267.216 277.744 263.409L361.472 166.208C364.94 162.163 367.691 157.642 369.725 152.764L370.084 151.931C388.145 108.149 340.181 66.39 298.915 90.0656L298.556 90.3036C293.652 93.1589 289.227 96.728 285.519 101.011L202.39 197.498C198.921 201.543 196.17 205.945 194.136 210.823L193.538 212.132C175.118 256.865 225.235 298.863 266.381 273.164Z" fill="white"/>
<path d="M287.531 213.107C285.742 208.43 283.357 203.994 280.256 200.037L201.668 98.1191C198.448 93.9225 194.513 90.2056 190.1 87.208L189.385 86.7284C150.031 60.1098 99.4675 98.7187 114.374 144.042L114.494 144.522C116.282 149.917 118.906 154.953 122.364 159.39L200.475 260.588C203.695 264.785 207.511 268.382 211.924 271.38L213.116 272.219C253.305 299.437 304.584 258.79 287.531 213.107Z" fill="white"/>
<path d="M102.566 267.976C106.868 265.356 110.692 262.022 113.919 258.211L197.817 161.149C201.283 157.1 204.032 152.574 206.064 147.691L206.422 146.858C224.588 103.031 176.783 61.2287 135.551 84.8094L135.193 85.0476C130.293 87.9059 125.871 91.4788 122.166 95.7662L38.8653 192.233C35.3994 196.163 32.6507 200.688 30.619 205.571L30.0214 206.881C11.3774 251.422 61.3337 293.701 102.566 267.976Z" fill="white"/>
<path d="M601.653 88.1818V270H572.356L486.685 146.154H485.176V270H452.239V88.1818H481.713L567.296 212.116H568.894V88.1818H601.653ZM691.491 272.663C677.819 272.663 666.011 269.822 656.068 264.141C646.184 258.4 638.579 250.291 633.252 239.815C627.925 229.28 625.262 216.881 625.262 202.617C625.262 188.59 627.925 176.28 633.252 165.685C638.638 155.032 646.154 146.746 655.802 140.827C665.449 134.85 676.783 131.861 689.804 131.861C698.208 131.861 706.139 133.222 713.596 135.945C721.113 138.608 727.742 142.751 733.483 148.374C739.283 153.996 743.84 161.158 747.155 169.858C750.469 178.499 752.126 188.797 752.126 200.753V210.607H640.354V188.945H721.32C721.261 182.79 719.929 177.315 717.325 172.521C714.721 167.668 711.081 163.851 706.405 161.069C701.789 158.287 696.403 156.896 690.248 156.896C683.678 156.896 677.907 158.494 672.936 161.69C667.964 164.827 664.088 168.97 661.306 174.119C658.583 179.209 657.192 184.802 657.133 190.898V209.808C657.133 217.739 658.583 224.545 661.483 230.227C664.383 235.85 668.438 240.17 673.646 243.189C678.854 246.148 684.95 247.628 691.934 247.628C696.61 247.628 700.842 246.977 704.63 245.675C708.418 244.313 711.702 242.331 714.484 239.727C717.266 237.122 719.367 233.897 720.787 230.05L750.794 233.423C748.901 241.354 745.29 248.279 739.964 254.197C734.696 260.057 727.949 264.614 719.722 267.869C711.495 271.065 702.085 272.663 691.491 272.663ZM833.796 272.663C820.183 272.663 808.494 269.674 798.729 263.697C789.022 257.719 781.535 249.463 776.268 238.928C771.059 228.333 768.455 216.141 768.455 202.351C768.455 188.501 771.119 176.28 776.445 165.685C781.772 155.032 789.289 146.746 798.995 140.827C808.761 134.85 820.302 131.861 833.619 131.861C844.686 131.861 854.481 133.903 863.004 137.987C871.586 142.011 878.422 147.723 883.512 155.121C888.602 162.46 891.502 171.042 892.212 180.866H861.495C860.252 174.297 857.293 168.822 852.617 164.442C848.001 160.004 841.816 157.784 834.062 157.784C827.493 157.784 821.722 159.56 816.751 163.111C811.779 166.603 807.902 171.634 805.121 178.203C802.398 184.773 801.037 192.644 801.037 201.818C801.037 211.11 802.398 219.1 805.121 225.788C807.843 232.417 811.661 237.537 816.573 241.147C821.545 244.698 827.374 246.474 834.062 246.474C838.797 246.474 843.029 245.586 846.758 243.81C850.546 241.976 853.712 239.342 856.257 235.909C858.802 232.476 860.548 228.304 861.495 223.391H892.212C891.443 233.039 888.602 241.591 883.69 249.048C878.777 256.446 872.089 262.247 863.626 266.449C855.162 270.592 845.219 272.663 833.796 272.663ZM981.695 133.636V158.494H903.303V133.636H981.695ZM922.657 100.966H954.795V228.984C954.795 233.305 955.446 236.619 956.748 238.928C958.109 241.177 959.885 242.715 962.075 243.544C964.265 244.373 966.691 244.787 969.354 244.787C971.367 244.787 973.202 244.639 974.859 244.343C976.575 244.047 977.877 243.781 978.765 243.544L984.18 268.668C982.464 269.26 980.008 269.911 976.812 270.621C973.675 271.332 969.828 271.746 965.271 271.864C957.221 272.101 949.971 270.888 943.52 268.224C937.069 265.502 931.949 261.3 928.161 255.618C924.433 249.936 922.598 242.834 922.657 234.311V100.966ZM1061.59 272.663C1048.27 272.663 1036.73 269.734 1026.97 263.874C1017.2 258.015 1009.62 249.818 1004.24 239.283C998.911 228.748 996.248 216.437 996.248 202.351C996.248 188.265 998.911 175.924 1004.24 165.33C1009.62 154.736 1017.2 146.509 1026.97 140.65C1036.73 134.79 1048.27 131.861 1061.59 131.861C1074.91 131.861 1086.45 134.79 1096.21 140.65C1105.98 146.509 1113.52 154.736 1118.85 165.33C1124.24 175.924 1126.93 188.265 1126.93 202.351C1126.93 216.437 1124.24 228.748 1118.85 239.283C1113.52 249.818 1105.98 258.015 1096.21 263.874C1086.45 269.734 1074.91 272.663 1061.59 272.663ZM1061.77 246.918C1068.99 246.918 1075.02 244.935 1079.88 240.969C1084.73 236.945 1088.34 231.559 1090.71 224.812C1093.13 218.065 1094.35 210.548 1094.35 202.262C1094.35 193.917 1093.13 186.371 1090.71 179.624C1088.34 172.817 1084.73 167.402 1079.88 163.377C1075.02 159.353 1068.99 157.34 1061.77 157.34C1054.37 157.34 1048.21 159.353 1043.3 163.377C1038.45 167.402 1034.81 172.817 1032.38 179.624C1030.01 186.371 1028.83 193.917 1028.83 202.262C1028.83 210.548 1030.01 218.065 1032.38 224.812C1034.81 231.559 1038.45 236.945 1043.3 240.969C1048.21 244.935 1054.37 246.918 1061.77 246.918Z" fill="white"/>
</svg>
