<svg width="1164" height="216" viewBox="0 0 1164 216" fill="none" xmlns="http://www.w3.org/2000/svg">
<g clip-path="url(#clip0_276_435)">
<path d="M266.381 201.664C270.687 199.047 274.395 195.716 277.744 191.909L361.472 94.7081C364.94 90.663 367.691 86.1421 369.725 81.2642L370.084 80.4314C388.145 36.6495 340.181 -5.10998 298.915 18.5656L298.556 18.8036C293.652 21.6589 289.227 25.228 285.519 29.511L202.39 125.998C198.921 130.043 196.17 134.445 194.136 139.323L193.538 140.632C175.118 185.365 225.235 227.363 266.381 201.664Z" fill="black"/>
<path d="M287.531 141.607C285.742 136.93 283.357 132.494 280.256 128.537L201.668 26.6191C198.448 22.4225 194.513 18.7056 190.1 15.708L189.385 15.2284C150.031 -11.3902 99.4675 27.2187 114.374 72.5422L114.494 73.0218C116.282 78.4174 118.906 83.4534 122.364 87.8898L200.475 189.088C203.695 193.285 207.511 196.882 211.924 199.88L213.116 200.719C253.305 227.937 304.584 187.29 287.531 141.607Z" fill="black"/>
<path d="M102.566 196.476C106.868 193.856 110.692 190.522 113.919 186.711L197.817 89.6489C201.283 85.5997 204.032 81.0741 206.064 76.1912L206.422 75.3575C224.588 31.5308 176.783 -10.2713 135.551 13.3094L135.193 13.5476C130.293 16.4059 125.871 19.9788 122.166 24.2662L38.8653 120.733C35.3994 124.663 32.6507 129.188 30.619 134.071L30.0214 135.381C11.3774 179.922 61.3337 222.201 102.566 196.476Z" fill="black"/>
<path d="M601.653 16.6818V198.5H572.356L486.685 74.6541H485.176V198.5H452.239V16.6818H481.713L567.296 140.616H568.894V16.6818H601.653ZM691.491 201.163C677.819 201.163 666.011 198.322 656.068 192.641C646.184 186.9 638.579 178.791 633.252 168.315C627.925 157.78 625.262 145.381 625.262 131.117C625.262 117.09 627.925 104.78 633.252 94.1854C638.638 83.532 646.154 75.246 655.802 69.3274C665.449 63.3497 676.783 60.3608 689.804 60.3608C698.208 60.3608 706.139 61.7221 713.596 64.4446C721.113 67.1079 727.742 71.2509 733.483 76.8736C739.283 82.4962 743.84 89.6577 747.155 98.358C750.469 106.999 752.126 117.297 752.126 129.253V139.107H640.354V117.445H721.32C721.261 111.29 719.929 105.815 717.325 101.021C714.721 96.1681 711.081 92.3506 706.405 89.5689C701.789 86.7872 696.403 85.3963 690.248 85.3963C683.678 85.3963 677.907 86.9943 672.936 90.1903C667.964 93.3272 664.088 97.4702 661.306 102.619C658.583 107.709 657.192 113.302 657.133 119.398V138.308C657.133 146.239 658.583 153.045 661.483 158.727C664.383 164.35 668.438 168.67 673.646 171.689C678.854 174.648 684.95 176.128 691.934 176.128C696.61 176.128 700.842 175.477 704.63 174.175C708.418 172.813 711.702 170.831 714.484 168.227C717.266 165.622 719.367 162.397 720.787 158.55L750.794 161.923C748.901 169.854 745.29 176.779 739.964 182.697C734.696 188.557 727.949 193.114 719.722 196.369C711.495 199.565 702.085 201.163 691.491 201.163ZM833.796 201.163C820.183 201.163 808.494 198.174 798.729 192.197C789.022 186.219 781.535 177.963 776.268 167.428C771.059 156.833 768.455 144.641 768.455 130.851C768.455 117.001 771.119 104.78 776.445 94.1854C781.772 83.532 789.289 75.246 798.995 69.3274C808.761 63.3497 820.302 60.3608 833.619 60.3608C844.686 60.3608 854.481 62.4027 863.004 66.4865C871.586 70.5111 878.422 76.2225 883.512 83.6207C888.602 90.9598 891.502 99.5417 892.212 109.366H861.495C860.252 102.797 857.293 97.3222 852.617 92.9425C848.001 88.5035 841.816 86.2841 834.062 86.2841C827.493 86.2841 821.722 88.0597 816.751 91.6108C811.779 95.1027 807.902 100.134 805.121 106.703C802.398 113.273 801.037 121.144 801.037 130.318C801.037 139.61 802.398 147.6 805.121 154.288C807.843 160.917 811.661 166.037 816.573 169.647C821.545 173.198 827.374 174.974 834.062 174.974C838.797 174.974 843.029 174.086 846.758 172.31C850.546 170.476 853.712 167.842 856.257 164.409C858.802 160.976 860.548 156.804 861.495 151.891H892.212C891.443 161.539 888.602 170.091 883.69 177.548C878.777 184.946 872.089 190.747 863.626 194.949C855.162 199.092 845.219 201.163 833.796 201.163ZM981.695 62.1364V86.9943H903.303V62.1364H981.695ZM922.657 29.4659H954.795V157.484C954.795 161.805 955.446 165.119 956.748 167.428C958.109 169.677 959.885 171.215 962.075 172.044C964.265 172.873 966.691 173.287 969.354 173.287C971.367 173.287 973.202 173.139 974.859 172.843C976.575 172.547 977.877 172.281 978.765 172.044L984.18 197.168C982.464 197.76 980.008 198.411 976.812 199.121C973.675 199.832 969.828 200.246 965.271 200.364C957.221 200.601 949.971 199.388 943.52 196.724C937.069 194.002 931.949 189.8 928.161 184.118C924.433 178.436 922.598 171.334 922.657 162.811V29.4659ZM1061.59 201.163C1048.27 201.163 1036.73 198.234 1026.97 192.374C1017.2 186.515 1009.62 178.318 1004.24 167.783C998.911 157.248 996.248 144.937 996.248 130.851C996.248 116.765 998.911 104.424 1004.24 93.8303C1009.62 83.236 1017.2 75.0092 1026.97 69.1499C1036.73 63.2905 1048.27 60.3608 1061.59 60.3608C1074.91 60.3608 1086.45 63.2905 1096.21 69.1499C1105.98 75.0092 1113.52 83.236 1118.85 93.8303C1124.24 104.424 1126.93 116.765 1126.93 130.851C1126.93 144.937 1124.24 157.248 1118.85 167.783C1113.52 178.318 1105.98 186.515 1096.21 192.374C1086.45 198.234 1074.91 201.163 1061.59 201.163ZM1061.77 175.418C1068.99 175.418 1075.02 173.435 1079.88 169.469C1084.73 165.445 1088.34 160.059 1090.71 153.312C1093.13 146.565 1094.35 139.048 1094.35 130.762C1094.35 122.417 1093.13 114.871 1090.71 108.124C1088.34 101.317 1084.73 95.9018 1079.88 91.8771C1075.02 87.8525 1068.99 85.8402 1061.77 85.8402C1054.37 85.8402 1048.21 87.8525 1043.3 91.8771C1038.45 95.9018 1034.81 101.317 1032.38 108.124C1030.01 114.871 1028.83 122.417 1028.83 130.762C1028.83 139.048 1030.01 146.565 1032.38 153.312C1034.81 160.059 1038.45 165.445 1043.3 169.469C1048.21 173.435 1054.37 175.418 1061.77 175.418Z" fill="black"/>
</g>
<defs>
<clipPath id="clip0_276_435">
<rect width="1164" height="216" fill="white"/>
</clipPath>
</defs>
</svg>
